<svg xmlns="http://www.w3.org/2000/svg" xmlns:xlink="http://www.w3.org/1999/xlink" xmlns:inkscape="http://www.inkscape.org/namespaces/inkscape" version="1.1" width="595.276" height="122.795" viewBox="0 0 595.276 122.795">
<defs>
<clipPath id="clip_1">
<path transform="matrix(1,0,0,-1,0,122.795)" d="M0 122.795H595.276V0H0Z"/>
</clipPath>
</defs>
<g inkscape:groupmode="layer" inkscape:label="Layer 1">
<path transform="matrix(1,0,0,-1,162.4112,39.1064)" d="M0 0H13.352V-7.552H-1.686V-27.58-39.379-46.932H-9.238V-7.552H-24.276V0H-9.238Z"/>
<path transform="matrix(1,0,0,-1,214.1979,59.0659)" d="M0 0V20.027H7.553V-26.973H0V-7.552H-23.735V-26.973H-31.288V20.027H-23.735V0Z"/>
<path transform="matrix(1,0,0,-1,0,122.795)" d="M270.03 76.204H236.786V83.756008H270.03Z"/>
<g clip-path="url(#clip_1)">
<path transform="matrix(1,0,0,-1,373.1778,72.2153)" d="M0 0C0-2.157-.416-4.091-1.247-5.799-2.079-7.508-3.202-8.958-4.618-10.148-6.034-11.34-7.664-12.238-9.507-12.846-11.351-13.452-13.283-13.756-15.307-13.756-18.453-13.756-21.533-13.307-24.544-12.407-27.557-11.509-30.276-10.047-32.704-8.024L-30.411-1.753C-28.074-3.192-25.714-4.327-23.331-5.158-20.949-5.99-18.341-6.405-15.509-6.405-14.521-6.405-13.543-6.305-12.575-6.103-11.609-5.899-10.744-5.553-9.979-5.057-9.216-4.562-8.597-3.923-8.125-3.136-7.652-2.35-7.417-1.372-7.417-.202-7.417 1.325-8.014 2.495-9.204 3.305-10.396 4.114-11.867 4.799-13.62 5.361-15.374 5.923-17.296 6.474-19.386 7.013-21.477 7.553-23.398 8.328-25.151 9.34-26.905 10.352-28.377 11.71-29.568 13.419-30.76 15.127-31.355 17.419-31.355 20.297-31.355 22.634-30.939 24.624-30.107 26.265-29.276 27.906-28.164 29.243-26.77 30.277-25.377 31.311-23.747 32.052-21.881 32.502-20.017 32.951-18.071 33.177-16.048 33.177-13.216 33.177-10.553 32.85-8.058 32.199-5.562 31.547-3.169 30.367-.876 28.659L-2.899 22.118C-4.068 22.836-5.158 23.443-6.169 23.938-7.181 24.433-8.216 24.837-9.271 25.152-10.328 25.466-11.419 25.691-12.541 25.826-13.666 25.961-14.925 26.029-16.317 26.029-17.127 26.029-17.97 25.928-18.847 25.726-19.723 25.523-20.544 25.208-21.308 24.782-22.073 24.354-22.701 23.803-23.195 23.129-23.691 22.455-23.937 21.623-23.937 20.634-23.937 19.286-23.59 18.195-22.893 17.364-22.196 16.532-21.297 15.835-20.195 15.273-19.095 14.711-17.824 14.229-16.386 13.824-14.947 13.419-13.475 13.003-11.969 12.576-10.463 12.148-8.991 11.643-7.552 11.059-6.113 10.475-4.844 9.71-3.742 8.767-2.641 7.822-1.742 6.642-1.044 5.227-.348 3.81 0 2.067 0 0"/>
<path transform="matrix(1,0,0,-1,401.837,39.1064)" d="M0 0H13.352V-7.552H-1.686V-27.58-39.379-46.932H-9.238V-7.552H-24.276V0H-9.238Z"/>
<path transform="matrix(1,0,0,-1,487.3409,39.038499)" d="M0 0H1.619L-17.263-31.559V-47H-24.814V-31.559L-43.561 0H-34.862L-21.038-22.455-7.08 0Z"/>
<path transform="matrix(1,0,0,-1,0,122.795)" d="M263.966 56.177H236.78601V63.728998H263.966Z"/>
<path transform="matrix(1,0,0,-1,0,122.795)" d="M270.03 36.756H236.786V44.309003H270.03Z"/>
<path transform="matrix(1,0,0,-1,453.8546,86.0385)" d="M0 0H-9.196L-13.399 8.393-23.448 28.536-33.494 8.393-37.697 0H-46.894L-42.69 8.393-23.448 47-4.203 8.393Z"/>
<path transform="matrix(1,0,0,-1,287.7569,86.0385)" d="M0 0H8V39.022L0 30.79Z" fill-rule="evenodd"/>
<path transform="matrix(1,0,0,-1,301.0108,86.0385)" d="M0 0V59.603L8 68V0Z" fill-rule="evenodd"/>
<path transform="matrix(1,0,0,-1,314.1827,41.089296)" d="M0 0V-44.949H8V9.714Z" fill-rule="evenodd"/>
</g>
</g>
</svg>
